<?xml version="1.0" encoding="UTF-8" standalone="no"?>
<!-- Created with Inkscape (http://www.inkscape.org/) -->

<svg
   xmlns:dc="http://purl.org/dc/elements/1.1/"
   xmlns:cc="http://creativecommons.org/ns#"
   xmlns:rdf="http://www.w3.org/1999/02/22-rdf-syntax-ns#"
   xmlns:svg="http://www.w3.org/2000/svg"
   xmlns="http://www.w3.org/2000/svg"
   xmlns:sodipodi="http://sodipodi.sourceforge.net/DTD/sodipodi-0.dtd"
   xmlns:inkscape="http://www.inkscape.org/namespaces/inkscape"
   width="210mm"
   height="297mm"
   viewBox="0 0 744.09448819 1052.3622047"
   id="svg4175"
   version="1.1"
   inkscape:version="0.91pre3 r13670"
   sodipodi:docname="boom.svg">
  <defs
     id="defs4177" />
  <sodipodi:namedview
     id="base"
     pagecolor="#ffffff"
     bordercolor="#666666"
     borderopacity="1.0"
     inkscape:pageopacity="0.0"
     inkscape:pageshadow="2"
     inkscape:zoom="1.4"
     inkscape:cx="33.620337"
     inkscape:cy="498.53018"
     inkscape:document-units="px"
     inkscape:current-layer="layer2"
     showgrid="false"
     inkscape:window-width="1920"
     inkscape:window-height="1051"
     inkscape:window-x="-9"
     inkscape:window-y="-9"
     inkscape:window-maximized="1" />
  <metadata
     id="metadata4180">
    <rdf:RDF>
      <cc:Work
         rdf:about="">
        <dc:format>image/svg+xml</dc:format>
        <dc:type
           rdf:resource="http://purl.org/dc/dcmitype/StillImage" />
        <dc:title />
      </cc:Work>
    </rdf:RDF>
  </metadata>
  <g
     inkscape:label="Layer 1"
     inkscape:groupmode="layer"
     id="layer1"
     style="display:inline"
     sodipodi:insensitive="true">
    <path
       style="opacity:1;fill:#ececec;fill-opacity:1;stroke:none;stroke-width:1.54999995;stroke-miterlimit:4;stroke-dasharray:none;stroke-dashoffset:0;stroke-opacity:1"
       d="m 392.85742,545.21875 a 24.285715,24.285715 0 0 0 -23.66211,18.91211 24.285715,24.285715 0 0 0 -7.05273,-1.05469 24.285715,24.285715 0 0 0 -24.28516,24.28516 24.285715,24.285715 0 0 0 24.28516,24.28711 24.285715,24.285715 0 0 0 16.56836,-6.55469 21.785715,21.785715 0 0 0 20.21679,13.69727 21.785715,21.785715 0 0 0 21.78711,-21.78516 21.785715,21.785715 0 0 0 -0.25976,-3.23047 19.285715,18.571428 0 0 0 18.83008,-18.55664 A 19.285715,18.571428 0 0 0 420,556.64844 a 19.285715,18.571428 0 0 0 -6.01172,0.94922 24.285715,24.285715 0 0 0 -21.13086,-12.37891 z"
       id="path4727"
       inkscape:connector-curvature="0" />
    <g
       id="g4166"
       transform="matrix(0.92478821,0.38048228,-0.38048228,0.92478821,357.46077,-47.472066)"
       style="fill:#ececec;fill-opacity:1">
      <rect
         y="611.93567"
         x="266.1752"
         height="199.50513"
         width="1.5152287"
         id="rect4162"
         style="opacity:1;fill:#ececec;fill-opacity:1;stroke:none;stroke-width:1.54999995;stroke-miterlimit:4;stroke-dasharray:none;stroke-dashoffset:0;stroke-opacity:1" />
      <rect
         y="621.2796"
         x="270.72089"
         height="151.27034"
         width="1.5152289"
         id="rect4164"
         style="opacity:1;fill:#ececec;fill-opacity:1;stroke:none;stroke-width:1.54999995;stroke-miterlimit:4;stroke-dasharray:none;stroke-dashoffset:0;stroke-opacity:1" />
    </g>
    <g
       transform="matrix(-0.49515433,0.63705727,-0.49490986,-0.50337769,790.12424,685.19535)"
       id="g4170"
       style="fill:#ececec;fill-opacity:1">
      <rect
         style="opacity:1;fill:#ececec;fill-opacity:1;stroke:none;stroke-width:1.54999995;stroke-miterlimit:4;stroke-dasharray:none;stroke-dashoffset:0;stroke-opacity:1"
         id="rect4172"
         width="1.5152287"
         height="199.50513"
         x="266.1752"
         y="611.93567" />
      <rect
         style="opacity:1;fill:#ececec;fill-opacity:1;stroke:none;stroke-width:1.54999995;stroke-miterlimit:4;stroke-dasharray:none;stroke-dashoffset:0;stroke-opacity:1"
         id="rect4174"
         width="1.5152289"
         height="151.27034"
         x="270.72089"
         y="621.2796" />
    </g>
    <g
       id="g4176"
       transform="matrix(0.49515433,0.63705727,0.49490986,-0.50337769,2.7638804,696.62392)"
       style="fill:#ececec;fill-opacity:1">
      <rect
         y="611.93567"
         x="266.1752"
         height="199.50513"
         width="1.5152287"
         id="rect4178"
         style="opacity:1;fill:#ececec;fill-opacity:1;stroke:none;stroke-width:1.54999995;stroke-miterlimit:4;stroke-dasharray:none;stroke-dashoffset:0;stroke-opacity:1" />
      <rect
         y="621.2796"
         x="270.72089"
         height="151.27034"
         width="1.5152289"
         id="rect4180"
         style="opacity:1;fill:#ececec;fill-opacity:1;stroke:none;stroke-width:1.54999995;stroke-miterlimit:4;stroke-dasharray:none;stroke-dashoffset:0;stroke-opacity:1" />
    </g>
  </g>
  <g
     inkscape:groupmode="layer"
     id="layer3"
     inkscape:label="Layer 2"
     style="display:inline"
     sodipodi:insensitive="true">
    <path
       style="opacity:1;fill:#f2f2f2;fill-opacity:1;stroke:none;stroke-width:1.54999995;stroke-miterlimit:4;stroke-dasharray:none;stroke-dashoffset:0;stroke-opacity:1"
       d="m 377.85714,588.79078 c -3.57143,2.85714 -127.14286,156.42857 -127.14286,156.42857 0,0 110.71429,-139.28571 140.71429,-150 30,-10.71429 96.42857,103.57143 96.42857,103.57143 0,0 -67.85714,-98.57143 -55.71429,-128.57143 12.14286,-30 87.85715,-95 87.85715,-95 0,0 -89.28572,62.14286 -111.42857,52.85714 -22.14286,-9.28571 -76.42857,-113.57142 -76.42857,-110 0,3.57143 63.57142,113.57143 52.85714,119.28572 -10.71429,5.71428 -87.14286,-36.42857 -87.14286,-36.42857 0,0 77.85714,51.42857 80.71429,60.71428 2.85714,9.28572 -0.71429,27.14286 -0.71429,27.14286 z"
       id="path4182"
       inkscape:connector-curvature="0" />
    <path
       style="opacity:1;fill:#ececec;fill-opacity:1;stroke:none;stroke-width:1.54999995;stroke-miterlimit:4;stroke-dasharray:none;stroke-dashoffset:0;stroke-opacity:1"
       d="M 419.64258,466.64844 A 39.642857,46.42857 0 0 0 380,513.07617 a 39.642857,46.42857 0 0 0 2.24805,15.25 28.214285,30 0 0 0 -10.9668,8.77539 40.714287,36.785713 0 0 0 -18.42383,-4.02539 40.714287,36.785713 0 0 0 -40.71484,36.78516 40.714287,36.785713 0 0 0 40.71484,36.78711 40.714287,36.785713 0 0 0 22.20313,-5.96485 31.071428,37.142857 0 0 0 -0.77539,8.10743 31.071428,37.142857 0 0 0 31.07226,37.14257 31.071428,37.142857 0 0 0 30.46289,-29.86132 51.42857,46.42857 0 0 0 14.89453,2.0039 51.42857,46.42857 0 0 0 51.42774,-46.42773 51.42857,46.42857 0 0 0 -44.39063,-45.9375 39.642857,46.42857 0 0 0 1.53321,-12.63477 39.642857,46.42857 0 0 0 -39.64258,-46.42773 z"
       id="path4737"
       inkscape:connector-curvature="0" />
    <path
       inkscape:connector-curvature="0"
       id="path4748"
       d="m 418.13882,477.43251 a 34.873791,40.843178 0 0 0 -34.87355,40.84244 34.873791,40.843178 0 0 0 1.97761,13.41541 24.820085,26.390977 0 0 0 -9.64749,7.71971 35.816328,32.360364 0 0 0 -16.20742,-3.54114 35.816328,32.360364 0 0 0 -35.81682,32.35988 35.816328,32.360364 0 0 0 35.81682,32.36159 35.816328,32.360364 0 0 0 19.53207,-5.24727 27.333512,32.674543 0 0 0 -0.68211,7.1321 27.333512,32.674543 0 0 0 27.33425,32.67429 27.333512,32.674543 0 0 0 26.79818,-26.26898 45.241674,40.843178 0 0 0 13.1027,1.76283 45.241674,40.843178 0 0 0 45.24095,-40.84244 45.241674,40.843178 0 0 0 -39.05041,-40.41118 34.873791,40.843178 0 0 0 1.34877,-11.1148 34.873791,40.843178 0 0 0 -34.87355,-40.84244 z"
       style="opacity:1;fill:#f2f2f2;fill-opacity:1;stroke:none;stroke-width:1.54999995;stroke-miterlimit:4;stroke-dasharray:none;stroke-dashoffset:0;stroke-opacity:1" />
  </g>
  <g
     inkscape:groupmode="layer"
     id="layer4"
     inkscape:label="Layer 3"
     style="display:inline"
     sodipodi:insensitive="true">
    <path
       style="opacity:1;fill:#f9f9f9;fill-opacity:1;stroke:none;stroke-width:1.54999995;stroke-miterlimit:4;stroke-dasharray:none;stroke-dashoffset:0;stroke-opacity:1"
       d="M 385.71428,535.93364 C 385,530.21935 306.42857,457.36221 306.42857,457.36221 c 0,0 70,98.57143 65.71429,115 -4.28572,16.42857 -47.85715,92.85714 -47.85715,92.85714 0,0 70.71429,-85 100,-81.42857 29.28572,3.57143 92.85714,62.14286 92.85714,62.14286 0,0 -62.85714,-63.57143 -51.42857,-90 11.42857,-26.42858 52.14286,-72.85715 52.14286,-72.85715 l -142.14286,63.57143 12.14286,-13.57143 z"
       id="path4184"
       inkscape:connector-curvature="0" />
    <path
       style="opacity:1;fill:#ececec;fill-opacity:1;stroke:none;stroke-width:1.54999995;stroke-miterlimit:4;stroke-dasharray:none;stroke-dashoffset:0;stroke-opacity:1"
       d="m 409.28516,424.50586 a 41.42857,31.428572 0 0 0 -41.42774,31.42773 41.42857,31.428572 0 0 0 3.41797,12.41211 50.357143,45 0 0 0 -14.84766,31.87305 50.357143,45 0 0 0 1.44727,10.48828 40,23.928572 0 0 0 -31.71289,20.07422 60.714287,38.92857 0 0 0 -45.87695,23.59766 38.92857,22.142857 0 0 0 -0.70118,0.22851 23.571428,19.642857 0 0 0 -16.72656,-5.8164 23.571428,19.642857 0 0 0 -22.31054,13.36132 25.714285,16.071428 0 0 0 -6.26172,-0.5039 25.714285,16.071428 0 0 0 -10.7461,1.49218 14.642858,10 0 0 0 -14.61133,-9.3496 14.642858,10 0 0 0 -14.64257,10 14.642858,10 0 0 0 14.64257,10 14.642858,10 0 0 0 0.46289,-0.0117 25.714285,16.071428 0 0 0 -0.81835,3.93945 25.714285,16.071428 0 0 0 25.71289,16.07227 25.714285,16.071428 0 0 0 20.96679,-6.78711 23.571428,19.642857 0 0 0 7.60547,1.07226 23.571428,19.642857 0 0 0 5.51953,-0.56836 38.92857,22.142857 0 0 0 23.51563,8.04492 60.714287,38.92857 0 0 0 43.72656,12.49805 61.42857,51.07143 0 0 0 -0.61914,6.81055 61.42857,51.07143 0 0 0 61.42773,51.07226 61.42857,51.07143 0 0 0 0.8086,-0.0234 34.285713,40 0 0 0 -0.0937,2.16601 34.285713,40 0 0 0 15.93554,33.73438 23.571428,25 0 0 0 -1.65039,9.12304 23.571428,25 0 0 0 23.57227,25 23.571428,25 0 0 0 23.57227,-25 23.571428,25 0 0 0 -3.80274,-13.60351 34.285713,40 0 0 0 10.94531,-29.25391 34.285713,40 0 0 0 -13.58203,-31.82031 61.42857,51.07143 0 0 0 1.00391,-1.79688 75.714287,62.5 0 0 0 1.14844,0.0469 75.714287,62.5 0 0 0 69.91015,-38.55274 40,31.428572 0 0 0 16.51953,2.8379 40,31.428572 0 0 0 40,-31.42969 40,31.428572 0 0 0 -40,-31.42774 40,31.428572 0 0 0 -21.03515,4.72266 75.714287,62.5 0 0 0 -29.99219,-23.85742 34.285713,41.42857 0 0 0 3.16992,-17.29297 34.285713,41.42857 0 0 0 -34.28515,-41.42969 34.285713,41.42857 0 0 0 -8.10938,1.22266 41.42857,31.428572 0 0 0 0.25195,-3.36524 41.42857,31.428572 0 0 0 -41.42968,-31.42773 z"
       id="path4751"
       inkscape:connector-curvature="0" />
    <path
       id="path4780"
       d="m 407.91604,434.29192 a 38.824934,29.4534 0 0 0 -38.82415,29.4526 38.824934,29.4534 0 0 0 3.20316,11.63206 47.192379,42.171913 0 0 0 -13.91454,29.86994 47.192379,42.171913 0 0 0 1.35631,9.82913 37.486144,22.424747 0 0 0 -29.71984,18.81263 56.898613,36.48205 0 0 0 -42.99376,22.11464 36.48205,20.751258 0 0 0 -0.65711,0.21414 22.090049,18.408374 0 0 0 -15.67535,-5.45086 22.090049,18.408374 0 0 0 -20.90841,12.52161 24.098235,15.061397 0 0 0 -5.86819,-0.47223 24.098235,15.061397 0 0 0 -10.07074,1.3984 13.722608,9.371536 0 0 0 -13.69307,-8.76201 13.722608,9.371536 0 0 0 -13.72233,9.37153 13.722608,9.371536 0 0 0 13.72233,9.37155 13.722608,9.371536 0 0 0 0.43381,-0.011 24.098235,15.061397 0 0 0 -0.76692,3.69187 24.098235,15.061397 0 0 0 24.09692,15.06218 24.098235,15.061397 0 0 0 19.6491,-6.36056 22.090049,18.408374 0 0 0 7.1275,1.00488 22.090049,18.408374 0 0 0 5.17264,-0.53265 36.48205,20.751258 0 0 0 22.03776,7.53932 56.898613,36.48205 0 0 0 40.97851,11.7126 57.568006,47.861775 0 0 0 -0.58023,6.38253 57.568006,47.861775 0 0 0 57.56722,47.86255 57.568006,47.861775 0 0 0 0.75778,-0.0219 32.13098,37.486144 0 0 0 -0.0879,2.02988 32.13098,37.486144 0 0 0 14.93404,31.61429 22.090049,23.42884 0 0 0 -1.54666,8.54969 22.090049,23.42884 0 0 0 22.09083,23.42885 22.090049,23.42884 0 0 0 22.09085,-23.42885 22.090049,23.42884 0 0 0 -3.56375,-12.74857 32.13098,37.486144 0 0 0 10.25743,-27.41541 32.13098,37.486144 0 0 0 -12.72845,-29.82052 57.568006,47.861775 0 0 0 0.94082,-1.68395 70.955917,58.572101 0 0 0 1.07626,0.0439 70.955917,58.572101 0 0 0 65.51655,-36.12984 37.486144,29.4534 0 0 0 15.48134,2.65955 37.486144,29.4534 0 0 0 37.48614,-29.45445 37.486144,29.4534 0 0 0 -37.48614,-29.45262 37.486144,29.4534 0 0 0 -19.71317,4.42586 70.955917,58.572101 0 0 0 -28.10728,-22.35806 32.13098,38.824934 0 0 0 2.97069,-16.20618 32.13098,38.824934 0 0 0 -32.13044,-38.82598 32.13098,38.824934 0 0 0 -7.59974,1.14582 38.824934,29.4534 0 0 0 0.23611,-3.15375 38.824934,29.4534 0 0 0 -38.82597,-29.45261 z"
       style="opacity:1;fill:#f9f9f9;fill-opacity:1;stroke:none;stroke-width:1.54999995;stroke-miterlimit:4;stroke-dasharray:none;stroke-dashoffset:0;stroke-opacity:1"
       inkscape:connector-curvature="0" />
  </g>
  <g
     inkscape:groupmode="layer"
     id="layer5"
     inkscape:label="Layer 4"
     style="display:inline"
     sodipodi:insensitive="true">
    <path
       style="opacity:1;fill:#ececec;fill-opacity:1;stroke:none;stroke-width:1.54999995;stroke-miterlimit:4;stroke-dasharray:none;stroke-dashoffset:0;stroke-opacity:1"
       d="M 304.64258,312.36133 A 24.642857,25.357143 0 0 0 280,337.71875 a 24.642857,25.357143 0 0 0 19.87891,24.87109 33.214287,26.428572 0 0 0 -7.02149,16.20118 33.214287,26.428572 0 0 0 33.21485,26.42773 33.214287,26.428572 0 0 0 0.83398,-0.0234 24.285715,22.142857 0 0 0 -1.90625,8.59571 24.285715,22.142857 0 0 0 19.42969,21.69336 37.5,38.214287 0 0 0 -0.14453,2.94921 37.5,38.214287 0 0 0 7.50781,22.87305 46.785713,40.357143 0 0 0 -8.2207,22.8418 46.785713,40.357143 0 0 0 6.74609,20.79492 93.214287,76.071426 0 0 0 -24.13086,27.00391 62.5,48.214287 0 0 0 -37.30469,13.38671 54.285713,41.785713 0 0 0 -26.02539,-5.11523 54.285713,41.785713 0 0 0 -2.05469,0.0566 26.785715,18.571428 0 0 0 -21.16015,-7.19922 26.785715,18.571428 0 0 0 -22.32031,8.32617 60.357143,34.285713 0 0 0 -30.53711,-4.7539 60.357143,34.285713 0 0 0 -50.81446,15.85156 50,25.357143 0 0 0 -45.255856,25.21875 50,25.357143 0 0 0 30.037106,23.23437 34.285713,25 0 0 0 32.82032,17.8379 34.285713,25 0 0 0 20.92187,-5.21485 25.357143,22.5 0 0 0 18.7207,7.35742 25.357143,22.5 0 0 0 24.27344,-16.01757 54.285713,41.785713 0 0 0 45.36914,18.875 54.285713,41.785713 0 0 0 29.73242,-6.84571 62.5,48.214287 0 0 0 34.80664,10.9336 16.785715,21.785715 48.498132 0 0 -5.30468,3.69726 16.785715,21.785715 48.498132 0 0 -8.34766,20.3086 16.785715,21.785715 48.498132 0 0 -22.36719,5.40625 16.785715,21.785715 48.498132 0 0 -6.03906,25.91601 16.785715,21.785715 48.498132 0 0 -6.10351,4.08399 16.785715,21.785715 48.498132 0 0 -5.19336,27.00781 16.785715,21.785715 48.498132 0 0 27.43945,-1.86524 16.785715,21.785715 48.498132 0 0 6.03906,-25.91601 16.785715,21.785715 48.498132 0 0 6.10352,-4.08399 16.785715,21.785715 48.498132 0 0 2.45312,-2.46875 16.785715,21.785715 48.498132 0 0 1.53711,2.19141 16.785715,21.785715 48.498132 0 0 27.4375,-1.86523 16.785715,21.785715 48.498132 0 0 5.19336,-27.00782 16.785715,21.785715 48.498132 0 0 -0.30078,-0.31054 16.785715,21.785715 48.498132 0 0 17.39844,-4.65821 58.92857,52.5 0 0 0 -3.05664,16.54688 58.92857,52.5 0 0 0 58.92968,52.5 58.92857,52.5 0 0 0 0.125,-0.004 34.642857,38.214287 0 0 0 -6.19726,21.79102 34.642857,38.214287 0 0 0 33.26172,38.13672 21.785715,33.214287 0 0 0 -1.83203,13.29101 21.785715,33.214287 0 0 0 21.78515,33.21485 21.785715,33.214287 0 0 0 21.78516,-33.21485 21.785715,33.214287 0 0 0 -11.94336,-29.59375 34.642857,38.214287 0 0 0 6.22851,-21.83398 34.642857,38.214287 0 0 0 -23.01953,-35.94922 58.92857,52.5 0 0 0 18.73438,-38.33789 58.92857,52.5 0 0 0 -19.63672,-39.05078 93.214287,76.071426 0 0 0 9.51562,-5.86133 56.42857,56.785713 0 0 0 35.1211,12.41211 56.42857,56.785713 0 0 0 42.45117,-19.4375 44.285713,33.57143 0 0 0 38.54883,-23.85938 38.214287,27.857143 0 0 0 13.64258,1.86914 A 38.214287,27.857143 0 0 0 640,563.07617 a 38.214287,27.857143 0 0 0 -38.21484,-27.85742 38.214287,27.857143 0 0 0 -34.00586,15.21094 44.285713,33.57143 0 0 0 -12.04492,-3.58985 56.42857,56.785713 0 0 0 -48.5918,-28.04882 56.42857,56.785713 0 0 0 -16.59766,2.57226 93.214287,76.071426 0 0 0 -0.20703,-0.29492 45.357143,47.5 0 0 0 30.37695,-44.77734 45.357143,47.5 0 0 0 -12.89453,-33.16602 31.785715,22.857143 0 0 0 7.81836,-13.97656 27.5,25.357143 0 0 0 22.72461,-22.04297 27.142857,21.428572 0 0 0 8.06445,0.9707 27.142857,21.428572 0 0 0 26.92579,-18.86328 21.785715,20 0 0 0 17.16601,-14.02734 18.928572,22.857143 0 0 0 0.55274,0.0332 A 18.928572,22.857143 0 0 0 610,352.36133 a 18.928572,22.857143 0 0 0 -18.92773,-22.85547 18.928572,22.857143 0 0 0 -18.78321,20.16406 21.785715,20 0 0 0 -2.64648,-0.16406 21.785715,20 0 0 0 -21.28516,15.78906 27.142857,21.428572 0 0 0 -1.92969,-0.0762 27.142857,21.428572 0 0 0 -25.94335,15.13867 27.5,25.357143 0 0 0 -9.41211,-1.5664 27.5,25.357143 0 0 0 -27.5,25.35742 27.5,25.357143 0 0 0 0.041,1.07812 31.785715,22.857143 0 0 0 -31.4707,22.84961 31.785715,22.857143 0 0 0 1.39648,6.63086 45.357143,47.5 0 0 0 -22.14648,30.14258 46.785713,40.357143 0 0 0 -14.26367,-13.77734 37.5,38.214287 0 0 0 2.15625,-12.63868 37.5,38.214287 0 0 0 -37.5,-38.21484 37.5,38.214287 0 0 0 -7.10352,0.72266 24.642857,22.142857 0 0 0 8.17578,-16.43555 24.642857,22.142857 0 0 0 -24.64258,-22.14453 24.642857,22.142857 0 0 0 -5.58398,0.60547 33.214287,26.428572 0 0 0 -2.96484,-2.76172 22.142857,24.642857 0 0 0 1.76171,-9.62891 22.142857,24.642857 0 0 0 -22.14257,-24.64258 22.142857,24.642857 0 0 0 -2.7168,0.21875 24.642857,25.357143 0 0 0 -21.92578,-13.79101 z"
       id="path4783"
       inkscape:connector-curvature="0" />
    <path
       id="path4848"
       d="m 308.27442,327.65768 a 23.16877,23.840329 0 0 0 -23.16851,23.84059 23.16877,23.840329 0 0 0 18.68979,23.38335 31.227475,24.847668 0 0 0 -6.60147,15.23206 31.227475,24.847668 0 0 0 31.228,24.84688 31.227475,24.847668 0 0 0 0.78409,-0.022 22.832992,20.818315 0 0 0 -1.79222,8.08153 22.832992,20.818315 0 0 0 18.26745,20.39571 35.256825,35.928385 0 0 0 -0.13589,2.77279 35.256825,35.928385 0 0 0 7.05871,21.50483 43.987085,37.943059 0 0 0 -7.72896,21.47545 43.987085,37.943059 0 0 0 6.34256,19.55101 87.638394,71.520985 0 0 0 -22.6874,25.38859 58.761375,45.330204 0 0 0 -35.0732,12.58594 51.03845,39.286175 0 0 0 -24.4686,-4.80924 51.03845,39.286175 0 0 0 -1.93179,0.0533 25.183447,17.460522 0 0 0 -19.89439,-6.76858 25.183447,17.460522 0 0 0 -20.98515,7.82812 56.746699,32.23481 0 0 0 -28.71044,-4.46954 56.746699,32.23481 0 0 0 -47.77484,14.90336 47.0091,23.840329 0 0 0 -42.54874,23.71021 47.0091,23.840329 0 0 0 28.24034,21.84454 32.23481,23.50455 0 0 0 30.85708,16.77087 32.23481,23.50455 0 0 0 19.67036,-4.90291 23.840329,21.154095 0 0 0 17.60087,6.91731 23.840329,21.154095 0 0 0 22.82145,-15.05943 51.03845,39.286175 0 0 0 42.65525,17.74594 51.03845,39.286175 0 0 0 27.95388,-6.43621 58.761375,45.330204 0 0 0 32.72458,10.27957 15.781627,20.482537 48.498132 0 0 -4.98737,3.4761 15.781627,20.482537 48.498132 0 0 -7.84832,19.09378 15.781627,20.482537 48.498132 0 0 -21.02923,5.08286 15.781627,20.482537 48.498132 0 0 -5.67781,24.36576 15.781627,20.482537 48.498132 0 0 -5.73841,3.8397 15.781627,20.482537 48.498132 0 0 -4.8827,25.39225 15.781627,20.482537 48.498132 0 0 25.79807,-1.75366 15.781627,20.482537 48.498132 0 0 5.67782,-24.36577 15.781627,20.482537 48.498132 0 0 5.73842,-3.83969 15.781627,20.482537 48.498132 0 0 2.30638,-2.32108 15.781627,20.482537 48.498132 0 0 1.44516,2.06033 15.781627,20.482537 48.498132 0 0 25.79624,-1.75366 15.781627,20.482537 48.498132 0 0 4.88271,-25.39226 15.781627,20.482537 48.498132 0 0 -0.28279,-0.29197 15.781627,20.482537 48.498132 0 0 16.3577,-4.37956 55.40358,49.359555 0 0 0 -2.8738,15.55707 55.40358,49.359555 0 0 0 55.40462,49.35956 55.40358,49.359555 0 0 0 0.11753,-0.004 32.57059,35.928385 0 0 0 -5.82655,20.48753 32.57059,35.928385 0 0 0 31.27207,35.85546 20.482537,31.227475 0 0 0 -1.72245,12.49596 20.482537,31.227475 0 0 0 20.48201,31.22801 20.482537,31.227475 0 0 0 20.48201,-31.22801 20.482537,31.227475 0 0 0 -11.22893,-27.82351 32.57059,35.928385 0 0 0 5.85594,-20.52791 32.57059,35.928385 0 0 0 -21.64255,-33.79881 55.40358,49.359555 0 0 0 17.61372,-36.0446 55.40358,49.359555 0 0 0 -18.46209,-36.71484 87.638394,71.520985 0 0 0 8.94642,-5.51071 53.053125,53.388905 0 0 0 33.02022,11.66964 53.053125,53.388905 0 0 0 39.91183,-18.27479 41.63663,31.563254 0 0 0 36.24292,-22.43216 35.928385,26.190784 0 0 0 12.8265,1.75734 35.928385,26.190784 0 0 0 35.92891,-26.19105 35.928385,26.190784 0 0 0 -35.92891,-26.19104 35.928385,26.190784 0 0 0 -31.97169,14.30105 41.63663,31.563254 0 0 0 -11.32442,-3.37511 53.053125,53.388905 0 0 0 -45.68514,-26.371 53.053125,53.388905 0 0 0 -15.60482,2.41839 87.638394,71.520985 0 0 0 -0.19464,-0.27728 42.643969,44.658645 0 0 0 28.55986,-42.09885 42.643969,44.658645 0 0 0 -12.12321,-31.18209 29.884357,21.489874 0 0 0 7.35069,-13.14051 25.855005,23.840329 0 0 0 21.36526,-20.7244 25.519225,20.146758 0 0 0 7.58206,0.91263 25.519225,20.146758 0 0 0 25.31514,-17.73491 20.482537,18.80364 0 0 0 16.13917,-13.18826 17.796303,21.489874 0 0 0 0.51968,0.0312 17.796303,21.489874 0 0 0 17.79551,-21.49014 17.796303,21.489874 0 0 0 -17.79551,-21.4883 17.796303,21.489874 0 0 0 -17.65964,18.95789 20.482537,18.80364 0 0 0 -2.48817,-0.15425 20.482537,18.80364 0 0 0 -20.01193,14.84459 25.519225,20.146758 0 0 0 -1.81425,-0.0716 25.519225,20.146758 0 0 0 -24.39148,14.2331 25.855005,23.840329 0 0 0 -8.84909,-1.4727 25.855005,23.840329 0 0 0 -25.85501,23.84059 25.855005,23.840329 0 0 0 0.0386,1.01363 29.884357,21.489874 0 0 0 -29.58819,21.48279 29.884357,21.489874 0 0 0 1.31295,6.23422 42.643969,44.658645 0 0 0 -20.82172,28.33951 43.987085,37.943059 0 0 0 -13.41045,-12.95321 35.256825,35.928385 0 0 0 2.02727,-11.88266 35.256825,35.928385 0 0 0 -35.25682,-35.9289 35.256825,35.928385 0 0 0 -6.67861,0.67943 23.16877,20.818315 0 0 0 7.68673,-15.45241 23.16877,20.818315 0 0 0 -23.16851,-20.81989 23.16877,20.818315 0 0 0 -5.24996,0.56925 31.227475,24.847668 0 0 0 -2.78749,-2.59652 20.818315,23.16877 0 0 0 1.65633,-9.05292 20.818315,23.16877 0 0 0 -20.81805,-23.16851 20.818315,23.16877 0 0 0 -2.55429,0.20566 23.16877,23.840329 0 0 0 -20.61422,-12.96606 z"
       style="opacity:1;fill:#f9f9f9;fill-opacity:1;stroke:none;stroke-width:1.54999995;stroke-miterlimit:4;stroke-dasharray:none;stroke-dashoffset:0;stroke-opacity:1"
       inkscape:connector-curvature="0" />
  </g>
  <g
     inkscape:groupmode="layer"
     id="layer7"
     inkscape:label="Layer 6"
     style="display:inline"
     sodipodi:insensitive="true">
    <g
       id="g4964"
       transform="translate(9.0913724,3.0304579)">
      <path
         id="path4851"
         d="m 332.16619,256.57641 a 21.785715,19.642857 0 0 0 -21.78516,19.64258 21.785715,19.642857 0 0 0 5.47461,12.99414 19.911648,17.953124 0 0 0 -3.8457,10.57031 19.911648,17.953124 0 0 0 0.12695,1.94922 22.728432,28.284271 0 0 0 -20.73047,28.15625 22.728432,28.284271 0 0 0 13.48633,25.81641 40.149713,26.113635 0 0 0 -0.0645,1.20117 40.149713,26.113635 0 0 0 0.35351,3.22461 56.42857,47.857143 0 0 0 -15.51562,32.87305 56.42857,47.857143 0 0 0 3.59375,16.63672 51.574428,43.740339 0 0 0 13.49414,26.46875 60.357143,83.214287 0 0 0 -7.80078,40.82422 60.357143,83.214287 0 0 0 1.93359,20.63671 61.114227,54.043159 0 0 0 -0.35547,0.51368 84.285713,54.285713 0 0 0 -28.7207,20.03125 92.85714,47.857143 0 0 0 -4.28711,-0.11133 92.85714,47.857143 0 0 0 -78.36133,22.20312 43.087498,29.37784 0 0 0 -38.75972,-21.97851 47.142857,32.142857 0 0 0 -20.02148,-3.08008 47.142857,32.142857 0 0 0 -39.695306,14.80469 35.860416,25.75889 0 0 0 -16.312498,19.52539 58.57143,29.285715 0 0 0 -12.3457,0.85742 22.849431,14.3625 0 0 0 -20.94727,-8.67578 22.849431,14.3625 0 0 0 -12.29882,2.27539 25,15.714286 0 0 0 -14.82813,-3.07422 25,15.714286 0 0 0 -24.999999,15.71484 25,15.714286 0 0 0 24.999999,15.71485 25,15.714286 0 0 0 5.23828,-0.36719 58.57143,29.285715 0 0 0 -1.66797,6.79492 58.57143,29.285715 0 0 0 58.57227,29.28516 58.57143,29.285715 0 0 0 34.923814,-5.83789 53.532954,26.766477 0 0 0 40.33789,-25.39258 43.087498,29.37784 0 0 0 23.72852,-6.70703 92.85714,47.857143 0 0 0 23.63476,27.78906 43.941635,41.921329 0 0 0 29.28907,13.70899 70,47.142857 0 0 0 68.08593,36.43945 70,47.142857 0 0 0 40.1836,-8.61133 115,101.42857 0 0 0 70.52929,21.46875 115,101.42857 0 0 0 115,-101.42773 115,101.42857 0 0 0 -13.45703,-47.4629 41.785713,60.714287 0 0 0 32.0293,-58.96679 41.785713,60.714287 0 0 0 -1.2832,-14.6211 27.745738,31.989203 0 0 0 18.34765,-10.4375 30.357143,35 0 0 0 21.08985,-10.99804 27.419317,32.315624 0 0 0 0.48632,0.0215 27.419317,32.315624 0 0 0 17.36915,-7.33594 38.385796,29.7995 0 0 0 12.01562,-5.89062 30,35.357143 0 0 0 24.11719,-34.66602 30,35.357143 0 0 0 -30,-35.35742 30,35.357143 0 0 0 -26.44336,18.80078 38.385796,29.7995 0 0 0 -16.90234,5.65625 30.357143,35 0 0 0 -2.72461,-0.17187 30.357143,35 0 0 0 -15.85547,5.1875 22.857143,16.428572 0 0 0 -16.64453,-5.1875 22.857143,16.428572 0 0 0 -22.85743,16.42969 22.857143,16.428572 0 0 0 0.0527,0.74804 20.890908,15.015341 0 0 0 -14.83008,14.36719 20.890908,15.015341 0 0 0 1.20703,4.97852 41.785713,60.714287 0 0 0 -18.79297,16.02343 38.19119,55.491476 0 0 0 -22.89258,50.81055 38.19119,55.491476 0 0 0 0.10157,2.85937 115,101.42857 0 0 0 -27.85157,-5.71874 60.357143,83.214287 0 0 0 -17.4082,-42.0293 44.446712,51.51778 0 0 0 0.83203,-9.8125 44.446712,51.51778 0 0 0 -0.17187,-4.22852 56.42857,47.857143 0 0 0 1.18164,-9.42773 56.42857,47.857143 0 0 0 -14.00196,-31.44922 36.870567,37.375645 0 0 0 2.89063,-14.49414 36.870567,37.375645 0 0 0 -1.06055,-8.71485 43.92857,28.571428 0 0 0 -9.03906,-16.95312 36.870567,37.375645 0 0 0 -26.77148,-11.70703 36.870567,37.375645 0 0 0 -6.00977,0.51172 43.92857,28.571428 0 0 0 -0.41406,-0.01 19.911648,17.953124 0 0 0 3.71679,-10.4043 19.911648,17.953124 0 0 0 -0.3125,-3.05468 16.162441,20.203051 0 0 0 11.60547,-19.36914 16.162441,20.203051 0 0 0 -16.16211,-20.20313 16.162441,20.203051 0 0 0 -5.61718,1.27344 21.785715,19.642857 0 0 0 -9.18164,-1.85352 z m -66.42774,0.71485 a 19.642857,15.357142 0 0 0 -19.64258,15.35742 19.642857,15.357142 0 0 0 12.13672,14.17578 17.953124,14.036078 0 0 0 -4.97851,9.69531 17.953124,14.036078 0 0 0 17.95312,14.03516 17.953124,14.036078 0 0 0 17.95313,-14.03516 17.953124,14.036078 0 0 0 -10.10157,-12.61133 19.642857,15.357142 0 0 0 6.32227,-11.25976 19.642857,15.357142 0 0 0 -19.64258,-15.35742 z m 361.78516,255.71289 a 42.142857,24.642857 0 0 0 -21.20117,3.375 38.517612,22.52301 0 0 0 -4.45118,-0.17969 38.517612,22.52301 0 0 0 -38.51757,22.52539 38.517612,22.52301 0 0 0 0.0351,0.59961 45.698862,29.05142 0 0 0 -39.85937,28.77734 45.698862,29.05142 0 0 0 4.66992,12.71094 37.375645,27.779196 0 0 0 36.95898,23.83594 37.375645,27.779196 0 0 0 18.15821,-3.53516 50,31.785715 0 0 0 8.49218,0.46289 50,31.785715 0 0 0 50,-31.78515 50,31.785715 0 0 0 -1.88085,-8.61914 42.142857,24.642857 0 0 0 29.73828,-23.52344 42.142857,24.642857 0 0 0 -42.14258,-24.64453 z m -435.11133,97.70703 a 27.274118,14.647212 0 0 0 -27.27539,14.64648 27.274118,14.647212 0 0 0 27.27539,14.64649 27.274118,14.647212 0 0 0 27.27344,-14.64649 27.274118,14.647212 0 0 0 -27.27344,-14.64648 z m 109.57031,49.53906 a 22.196591,30.683523 34.004258 0 0 -25.34961,15.88672 22.196591,30.683523 34.004258 0 0 -3.84961,7.10938 17.076862,23.606253 34.004258 0 0 -24.54687,11.42187 17.076862,23.606253 34.004258 0 0 -4.29688,9.41406 18.684122,25.828053 34.004258 0 0 -3.33398,4.1875 18.684122,25.828053 34.004258 0 0 1.04492,31.86133 18.684122,25.828053 34.004258 0 0 29.93359,-10.96289 18.684122,25.828053 34.004258 0 0 0.38086,-0.59766 24.285715,33.57143 34.004258 0 0 1.07032,0.83594 24.285715,33.57143 34.004258 0 0 16.78906,2.33594 19.192898,19.697975 0 0 0 9.78516,-4.36328 24.285715,33.57143 34.004258 0 0 12.33203,-12.22071 24.285715,33.57143 34.004258 0 0 2.31054,-3.86523 25.253813,24.243662 0 0 0 20.5918,-23.81055 25.253813,24.243662 0 0 0 -22.2207,-24.04882 22.196591,30.683523 34.004258 0 0 -0.42774,-0.32032 22.196591,30.683523 34.004258 0 0 -10.21289,-2.86328 z m 111.54492,8.0625 a 30.357102,41.781818 0 0 0 -30.35742,41.78125 30.357102,41.781818 0 0 0 5.79492,24.48242 33.214287,45.714287 0 0 0 32.48829,36.28516 33.214287,45.714287 0 0 0 5.45507,-0.6875 27.419317,51.574428 0 0 0 6.19336,17.68555 17.953124,18.605965 0 0 0 -4.23437,12 17.953124,18.605965 0 0 0 10.46094,16.88281 19.642857,20.357143 0 0 0 -1.08985,6.61914 19.642857,20.357143 0 0 0 19.64258,20.35742 19.642857,20.357143 0 0 0 19.5957,-18.96875 34.345188,40.406101 0 0 0 7.87891,1.12305 34.345188,40.406101 0 0 0 34.3457,-40.40625 34.345188,40.406101 0 0 0 -28.76562,-39.82227 30,56.42857 0 0 0 -2.2793,-7.5 42.426407,36.870567 0 0 0 0.74023,-6.7207 42.426407,36.870567 0 0 0 -42.42578,-36.87109 42.426407,36.870567 0 0 0 -0.89257,0.0273 33.214287,45.714287 0 0 0 -7.99024,-8.92578 30.357102,41.781818 0 0 0 -24.56055,-17.3418 z M 513.6408,848.09589 a 18.182745,11.111678 0 0 0 -18.1836,11.1114 18.182745,11.111678 0 0 0 18.1836,11.1133 18.182745,11.111678 0 0 0 18.18164,-11.1133 18.182745,11.111678 0 0 0 -18.18164,-11.1114 z"
         style="opacity:1;fill:#ececec;fill-opacity:1;stroke:none;stroke-width:1.54999995;stroke-miterlimit:4;stroke-dasharray:none;stroke-dashoffset:0;stroke-opacity:1"
         inkscape:connector-curvature="0" />
      <path
         inkscape:connector-curvature="0"
         style="opacity:1;fill:#f9f9f9;fill-opacity:1;stroke:none;stroke-width:1.54999995;stroke-miterlimit:4;stroke-dasharray:none;stroke-dashoffset:0;stroke-opacity:1"
         d="m 331.86099,289.36425 a 19.458013,17.54411 0 0 0 -19.45752,17.54387 19.458013,17.54411 0 0 0 4.88968,11.60577 17.784182,16.034917 0 0 0 -3.43481,9.44092 17.784182,16.034917 0 0 0 0.11339,1.74096 20.300006,25.262229 0 0 0 -18.51552,25.14789 20.300006,25.262229 0 0 0 12.04538,23.05804 35.859904,23.323515 0 0 0 -0.0576,1.07283 35.859904,23.323515 0 0 0 0.31574,2.88008 50.399442,42.743832 0 0 0 -13.85785,29.36072 50.399442,42.743832 0 0 0 3.20977,14.85916 46.063942,39.066889 0 0 0 12.05236,23.64069 53.908265,74.32323 0 0 0 -6.96731,36.46234 53.908265,74.32323 0 0 0 1.727,18.43178 54.584458,48.268901 0 0 0 -0.31749,0.45879 75.280179,48.485539 0 0 0 -25.65203,17.89101 82.93579,42.743832 0 0 0 -3.82905,-0.0994 82.93579,42.743832 0 0 0 -69.98879,19.83082 38.483801,26.238955 0 0 0 -34.61847,-19.6302 42.105864,28.708543 0 0 0 -17.88228,-2.75099 42.105864,28.708543 0 0 0 -35.45405,13.22288 32.028899,23.006673 0 0 0 -14.56959,17.43919 52.313347,26.156674 0 0 0 -11.026616,0.76581 20.408076,12.827934 0 0 0 -18.709148,-7.74882 20.408076,12.827934 0 0 0 -10.98475,2.03228 22.328867,14.035288 0 0 0 -13.24381,-2.74575 22.328867,14.035288 0 0 0 -22.32887,14.03578 22.328867,14.035288 0 0 0 22.32887,14.03579 22.328867,14.035288 0 0 0 4.67859,-0.32796 52.313347,26.156674 0 0 0 -1.48975,6.06892 52.313347,26.156674 0 0 0 52.314084,26.15618 52.313347,26.156674 0 0 0 31.19238,-5.21414 47.813209,23.906604 0 0 0 36.02797,-22.67951 38.483801,26.238955 0 0 0 21.19324,-5.99041 82.93579,42.743832 0 0 0 21.1095,24.81993 39.246677,37.442231 0 0 0 26.15967,12.24425 62.520828,42.105864 0 0 0 60.81127,32.54606 62.520828,42.105864 0 0 0 35.89017,-7.69125 102.71279,90.591403 0 0 0 62.99356,19.17492 102.71279,90.591403 0 0 0 102.71279,-90.59065 102.71279,90.591403 0 0 0 -12.01921,-42.39172 37.321105,54.22725 0 0 0 28.60712,-52.66646 37.321105,54.22725 0 0 0 -1.14609,-13.0589 24.781236,28.571307 0 0 0 16.38729,-9.32231 27.113625,31.260414 0 0 0 18.83649,-9.82295 24.489691,28.862851 0 0 0 0.43436,0.0192 24.489691,28.862851 0 0 0 15.51334,-6.55213 34.284454,26.615563 0 0 0 10.73181,-5.26124 26.794641,31.579398 0 0 0 21.54038,-30.96212 26.794641,31.579398 0 0 0 -26.79464,-31.57964 26.794641,31.579398 0 0 0 -23.61801,16.792 34.284454,26.615563 0 0 0 -15.09641,5.05191 27.113625,31.260414 0 0 0 -2.43349,-0.15351 27.113625,31.260414 0 0 0 -14.16139,4.63324 20.414964,14.673256 0 0 0 -14.86614,-4.63324 20.414964,14.673256 0 0 0 -20.41522,14.67426 20.414964,14.673256 0 0 0 0.0471,0.66811 18.658812,13.411022 0 0 0 -13.24555,12.83213 18.658812,13.411022 0 0 0 1.07806,4.44659 37.321105,54.22725 0 0 0 -16.78503,14.3114 34.11064,49.562472 0 0 0 -20.44661,45.38168 34.11064,49.562472 0 0 0 0.0907,2.55386 102.71279,90.591403 0 0 0 -24.87576,-5.10772 53.908265,74.32323 0 0 0 -15.54821,-37.53867 39.697789,46.013347 0 0 0 0.74313,-8.76408 39.697789,46.013347 0 0 0 -0.15351,-3.77672 50.399442,42.743832 0 0 0 1.05539,-8.42042 50.399442,42.743832 0 0 0 -12.50591,-28.08902 32.93112,33.382232 0 0 0 2.58177,-12.94551 32.93112,33.382232 0 0 0 -0.94723,-7.78371 39.235008,25.518705 0 0 0 -8.07328,-15.14176 32.93112,33.382232 0 0 0 -23.91107,-10.45619 32.93112,33.382232 0 0 0 -5.36766,0.45705 39.235008,25.518705 0 0 0 -0.36982,-0.009 17.784182,16.034917 0 0 0 3.31967,-9.29265 17.784182,16.034917 0 0 0 -0.27911,-2.7283 14.43556,18.04445 0 0 0 10.36548,-17.29964 14.43556,18.04445 0 0 0 -14.43526,-18.04452 14.43556,18.04445 0 0 0 -5.01701,1.13738 19.458013,17.54411 0 0 0 -8.20063,-1.65548 z m -59.33025,0.63847 a 17.54411,13.716303 0 0 0 -17.54386,13.71656 17.54411,13.716303 0 0 0 10.83997,12.66116 16.034917,12.536389 0 0 0 -4.44658,8.65941 16.034917,12.536389 0 0 0 16.03491,12.53557 16.034917,12.536389 0 0 0 16.03493,-12.53557 16.034917,12.536389 0 0 0 -9.02227,-11.26387 17.54411,13.716303 0 0 0 5.64677,-10.0567 17.54411,13.716303 0 0 0 -17.54387,-13.71656 z m 323.13012,228.39117 a 37.64009,22.009883 0 0 0 -18.93593,3.0144 34.402186,20.116532 0 0 0 -3.97559,-0.16049 34.402186,20.116532 0 0 0 -34.40215,20.11865 34.402186,20.116532 0 0 0 0.0314,0.53555 40.816153,25.947412 0 0 0 -35.60059,25.70261 40.816153,25.947412 0 0 0 4.17096,11.35284 33.382232,24.811119 0 0 0 33.01009,21.28918 33.382232,24.811119 0 0 0 16.21809,-3.15744 44.657734,28.38956 0 0 0 7.58483,0.41343 44.657734,28.38956 0 0 0 44.65773,-28.38906 44.657734,28.38956 0 0 0 -1.67989,-7.69822 37.64009,22.009883 0 0 0 26.56089,-21.01007 37.64009,22.009883 0 0 0 -37.63984,-22.01138 z m -388.62173,87.26749 a 24.360006,13.082226 0 0 0 -24.36114,13.08157 24.360006,13.082226 0 0 0 24.36114,13.08159 24.360006,13.082226 0 0 0 24.3594,-13.08159 24.360006,13.082226 0 0 0 -24.3594,-13.08157 z m 97.86324,44.24605 a 19.824989,27.405132 34.004258 0 0 -22.64112,14.18929 19.824989,27.405132 34.004258 0 0 -3.4383,6.34978 15.252279,21.084035 34.004258 0 0 -21.92415,10.2015 15.252279,21.084035 34.004258 0 0 -3.83778,8.40821 16.687811,23.068447 34.004258 0 0 -2.97776,3.74008 16.687811,23.068447 34.004258 0 0 0.93327,28.4571 16.687811,23.068447 34.004258 0 0 26.73533,-9.79156 16.687811,23.068447 34.004258 0 0 0.34017,-0.5338 21.6909,29.98448 34.004258 0 0 0.95596,0.74662 21.6909,29.98448 34.004258 0 0 14.99522,2.08636 17.142227,17.593339 0 0 0 8.73967,-3.89708 21.6909,29.98448 34.004258 0 0 11.01441,-10.91499 21.6909,29.98448 34.004258 0 0 2.06367,-3.45225 22.555561,21.65334 0 0 0 18.39166,-21.2665 22.555561,21.65334 0 0 0 -19.84652,-21.47932 19.824989,27.405132 34.004258 0 0 -0.38204,-0.28609 19.824989,27.405132 34.004258 0 0 -9.12169,-2.55735 z m 99.62687,7.20106 a 27.113588,37.317627 0 0 0 -27.11388,37.31711 27.113588,37.317627 0 0 0 5.17576,21.86659 29.665496,40.82993 0 0 0 29.01707,32.40826 29.665496,40.82993 0 0 0 4.87222,-0.61404 24.489691,46.063942 0 0 0 5.53163,15.79593 16.034917,16.618005 0 0 0 -3.78194,10.71786 16.034917,16.618005 0 0 0 9.34323,15.07896 17.54411,18.182078 0 0 0 -0.9734,5.91191 17.54411,18.182078 0 0 0 17.54386,18.18233 17.54411,18.182078 0 0 0 17.50199,-16.94203 30.675566,36.088898 0 0 0 7.03709,1.00306 30.675566,36.088898 0 0 0 30.67602,-36.08903 30.675566,36.088898 0 0 0 -25.69215,-35.56745 26.794641,50.399442 0 0 0 -2.03577,-6.69866 37.893344,32.93112 0 0 0 0.66114,-6.00262 37.893344,32.93112 0 0 0 -37.89278,-32.93159 37.893344,32.93112 0 0 0 -0.7972,0.0244 29.665496,40.82993 0 0 0 -7.13652,-7.9721 27.113588,37.317627 0 0 0 -21.93637,-15.48891 z m 89.41665,160.5742 a 16.240004,9.9244473 0 0 0 -16.24077,9.92414 16.240004,9.9244473 0 0 0 16.24077,9.92586 16.240004,9.9244473 0 0 0 16.23902,-9.92586 16.240004,9.9244473 0 0 0 -16.23902,-9.92414 z"
         id="path4944" />
    </g>
  </g>
  <g
     inkscape:groupmode="layer"
     id="layer8"
     inkscape:label="Layer 7"
     style="display:inline"
     sodipodi:insensitive="true">
    <path
       style="opacity:1;fill:#ececec;fill-opacity:1;stroke:none;stroke-width:1.54999995;stroke-miterlimit:4;stroke-dasharray:none;stroke-dashoffset:0;stroke-opacity:1"
       d="m 383.85742,244.24023 a 16.162441,36.36549 0 0 0 -16.16211,36.36524 16.162441,36.36549 0 0 0 0.0156,0.95117 46.467018,58.588848 0 0 0 -8.09571,-0.95117 46.467018,58.588848 0 0 0 -46.46875,58.58984 46.467018,58.588848 0 0 0 7.69532,32.23242 56.568542,56.568542 0 0 0 -7.69532,28.375 56.568542,56.568542 0 0 0 56.56836,56.57032 56.568542,56.568542 0 0 0 56.57032,-56.57032 56.568542,56.568542 0 0 0 -21.99805,-44.6875 46.467018,58.588848 0 0 0 1.79492,-15.91992 46.467018,58.588848 0 0 0 -9.67383,-35.72265 16.162441,36.36549 0 0 0 3.61133,-22.86719 16.162441,36.36549 0 0 0 -16.16211,-36.36524 z M 568.7168,393.74219 a 37.375645,30.304577 0 0 0 -37.17969,27.22265 45.456863,29.294424 0 0 0 -11.30859,-0.95898 45.456863,29.294424 0 0 0 -45.45704,29.29492 45.456863,29.294424 0 0 0 45.45704,29.29492 45.456863,29.294424 0 0 0 44.76757,-24.39453 37.375645,30.304577 0 0 0 3.72071,0.15039 37.375645,30.304577 0 0 0 37.375,-30.30468 37.375645,30.304577 0 0 0 -37.375,-30.30469 z m -173.74805,90.91406 a 65.659912,50.507626 0 0 0 -56.16406,24.46484 64.649765,52.527931 0 0 0 -5.45508,-0.2207 64.649765,52.527931 0 0 0 -64.64844,52.52734 64.649765,52.527931 0 0 0 22.28125,39.63086 32.324883,24.243662 0 0 0 -12.17969,18.95899 32.324883,24.243662 0 0 0 32.32422,24.24219 32.324883,24.243662 0 0 0 32.32422,-24.24219 32.324883,24.243662 0 0 0 -1.23633,-6.61719 64.649765,52.527931 0 0 0 29.83204,-9.95898 53.538086,47.477169 0 0 0 53.22656,42.83984 53.538086,47.477169 0 0 0 53.53906,-47.47656 53.538086,47.477169 0 0 0 -25.5918,-40.42774 65.659912,50.507626 0 0 0 7.40821,-23.21289 65.659912,50.507626 0 0 0 -65.66016,-50.50781 z M 152.5332,512.94141 a 45.456863,35.355339 0 0 0 -45.45703,35.35547 45.456863,35.355339 0 0 0 0.55664,5.33203 43.436558,23.233509 0 0 0 -36.921872,22.95117 43.436558,23.233509 0 0 0 43.435542,23.23437 43.436558,23.233509 0 0 0 41.41602,-16.24609 45.456863,35.355339 0 0 0 42.42773,-35.27148 45.456863,35.355339 0 0 0 -45.45703,-35.35547 z m -95.964841,2.01953 a 20.203051,11.111678 0 0 0 -20.203125,11.11133 20.203051,11.111678 0 0 0 20.203125,11.11132 20.203051,11.111678 0 0 0 20.203125,-11.11132 20.203051,11.111678 0 0 0 -20.203125,-11.11133 z m 562.654301,32.32422 a 37.375645,21.213203 0 0 0 -36.25391,16.16796 45.456863,28.284271 0 0 0 -0.11133,-0.004 45.456863,28.284271 0 0 0 -45.45703,28.2832 45.456863,28.284271 0 0 0 45.45703,28.28516 45.456863,28.284271 0 0 0 45.45703,-28.28516 45.456863,28.284271 0 0 0 -0.24023,-2.64648 A 37.375645,21.213203 0 0 0 656.59961,568.5 37.375645,21.213203 0 0 0 619.22266,547.28516 Z M 313.14648,694.76758 a 30.304577,23.233509 0 0 0 -26.89062,12.5664 26.263966,27.274118 0 0 0 -21.5957,26.83008 26.263966,27.274118 0 0 0 26.26367,27.27344 26.263966,27.274118 0 0 0 25.37109,-20.35352 30.304577,23.233509 0 0 0 27.15625,-23.08203 30.304577,23.233509 0 0 0 -30.30469,-23.23437 z m 143.44336,30.30469 A 46.467018,42.426407 0 0 0 410.12109,767.5 46.467018,42.426407 0 0 0 451,809.58203 a 36.36549,36.36549 0 0 0 35.89258,30.64844 36.36549,36.36549 0 0 0 36.36719,-36.36524 36.36549,36.36549 0 0 0 -20.40821,-32.62695 46.467018,42.426407 0 0 0 0.20508,-3.73828 46.467018,42.426407 0 0 0 -46.4668,-42.42773 z"
       id="path4969"
       inkscape:connector-curvature="0" />
    <path
       id="path5006"
       d="m 381.42257,263.65357 a 15.109514,33.996405 0 0 0 -15.10921,33.99617 15.109514,33.996405 0 0 0 0.0146,0.88921 43.439854,54.771989 0 0 0 -7.56831,-0.88921 43.439854,54.771989 0 0 0 -43.44147,54.77292 43.439854,54.771989 0 0 0 7.194,30.13259 52.883299,52.883299 0 0 0 -7.194,26.52647 52.883299,52.883299 0 0 0 52.88313,52.88496 52.883299,52.883299 0 0 0 52.88496,-52.88496 52.883299,52.883299 0 0 0 -20.56495,-41.77627 43.439854,54.771989 0 0 0 1.67798,-14.88279 43.439854,54.771989 0 0 0 -9.04361,-33.39545 15.109514,33.996405 0 0 0 3.37606,-21.37747 15.109514,33.996405 0 0 0 -15.1092,-33.99617 z M 554.23901,403.416 a 34.940752,28.33034 0 0 0 -34.75757,25.44919 42.495507,27.385995 0 0 0 -10.57187,-0.89651 42.495507,27.385995 0 0 0 -42.49567,27.38646 42.495507,27.385995 0 0 0 42.49567,27.38646 42.495507,27.385995 0 0 0 41.85112,-22.80531 34.940752,28.33034 0 0 0 3.47832,0.14059 34.940752,28.33034 0 0 0 34.94015,-28.33043 34.940752,28.33034 0 0 0 -34.94015,-28.33045 z m -162.42897,84.99133 a 61.382398,47.217231 0 0 0 -52.50517,22.87104 60.438059,49.10592 0 0 0 -5.0997,-0.20632 60.438059,49.10592 0 0 0 -60.43682,49.10536 60.438059,49.10592 0 0 0 20.8297,37.04905 30.21903,22.664272 0 0 0 -11.38622,17.72388 30.21903,22.664272 0 0 0 30.21841,22.6629 30.21903,22.664272 0 0 0 30.21841,-22.6629 30.21903,22.664272 0 0 0 -1.15579,-6.1861 60.438059,49.10592 0 0 0 27.88858,-9.31019 50.050267,44.384197 0 0 0 49.75904,40.04897 50.050267,44.384197 0 0 0 50.05118,-44.38362 50.050267,44.384197 0 0 0 -23.92459,-37.79402 61.382398,47.217231 0 0 0 6.9256,-21.70065 61.382398,47.217231 0 0 0 -61.38263,-47.2174 z m -226.64173,26.44248 a 42.495507,33.052062 0 0 0 -42.49566,33.05218 42.495507,33.052062 0 0 0 0.52038,4.98467 40.606818,21.719927 0 0 0 -34.516544,21.45598 40.606818,21.719927 0 0 0 40.605864,21.72073 40.606818,21.719927 0 0 0 38.71792,-15.18771 42.495507,33.052062 0 0 0 39.66371,-32.97367 42.495507,33.052062 0 0 0 -42.49567,-33.05218 z m -89.713063,1.88796 a 18.886893,10.387791 0 0 0 -18.886962,10.38747 18.886893,10.387791 0 0 0 18.886962,10.38745 18.886893,10.387791 0 0 0 18.886962,-10.38745 18.886893,10.387791 0 0 0 -18.886962,-10.38747 z m 525.999343,30.21841 a 34.940752,19.831237 0 0 0 -33.8921,15.11468 42.495507,26.44165 0 0 0 -0.10407,-0.004 42.495507,26.44165 0 0 0 -42.49567,26.44065 42.495507,26.44165 0 0 0 42.49567,26.44248 42.495507,26.44165 0 0 0 42.49566,-26.44248 42.495507,26.44165 0 0 0 -0.22458,-2.47407 34.940752,19.831237 0 0 0 26.66706,-19.24484 34.940752,19.831237 0 0 0 -34.94197,-19.83277 z M 315.3182,684.83064 a 28.33034,21.719927 0 0 0 -25.13879,11.74774 24.55296,25.497305 0 0 0 -20.18882,25.0822 24.55296,25.497305 0 0 0 24.55269,25.49667 24.55296,25.497305 0 0 0 23.71825,-19.02756 28.33034,21.719927 0 0 0 25.38712,-21.57832 28.33034,21.719927 0 0 0 -28.33045,-21.72073 z m 134.09853,28.33044 a 43.439854,39.662475 0 0 0 -43.44148,39.66372 43.439854,39.662475 0 0 0 38.2158,39.34053 33.996405,33.996405 0 0 0 33.5543,28.6518 33.996405,33.996405 0 0 0 33.99799,-33.99617 33.996405,33.996405 0 0 0 -19.07868,-30.50142 43.439854,39.662475 0 0 0 0.19172,-3.49474 43.439854,39.662475 0 0 0 -43.43965,-39.66372 z"
       style="opacity:1;fill:#f9f9f9;fill-opacity:1;stroke:none;stroke-width:1.54999995;stroke-miterlimit:4;stroke-dasharray:none;stroke-dashoffset:0;stroke-opacity:1"
       inkscape:connector-curvature="0" />
  </g>
  <g
     inkscape:groupmode="layer"
     id="layer9"
     inkscape:label="Layer 8"
     sodipodi:insensitive="true"
     style="display:inline">
    <path
       style="opacity:1;fill:#ececec;fill-opacity:1;stroke:none;stroke-width:1.54999995;stroke-miterlimit:4;stroke-dasharray:none;stroke-dashoffset:0;stroke-opacity:1"
       d="m 339.91602,338.18359 a 33.840111,31.819805 0 0 0 -33.83985,31.82032 33.840111,31.819805 0 0 0 33.83985,31.82031 33.840111,31.819805 0 0 0 10.61328,-1.64649 28.789347,37.880722 0 0 0 -0.006,0.13086 28.789347,37.880722 0 0 0 28.78906,37.88086 28.789347,37.880722 0 0 0 28.78906,-37.88086 28.789347,37.880722 0 0 0 -2.32812,-14.8164 26.769043,19.697975 0 0 0 23.54101,-19.5293 26.769043,19.697975 0 0 0 -26.76953,-19.69727 26.769043,19.697975 0 0 0 -26.36719,16.4336 28.789347,37.880722 0 0 0 -3.19921,0.70508 33.840111,31.819805 0 0 0 -33.0625,-25.22071 z m 191.92968,74.75196 a 41.921329,29.7995 0 0 0 -37.86328,17.09375 23.738585,23.738585 0 0 0 -17.18945,22.80664 23.738585,23.738585 0 0 0 23.73828,23.74023 23.738585,23.738585 0 0 0 10.05664,-2.26562 29.7995,17.67767 0 0 0 21.25781,5.29492 29.7995,17.67767 0 0 0 29.625,-15.8125 41.921329,29.7995 0 0 0 12.29688,-21.05859 41.921329,29.7995 0 0 0 -41.92188,-29.79883 z m -139.90625,92.93359 a 36.36549,31.31473 0 0 0 -29.05468,12.54688 32.324883,27.274118 0 0 0 -24.48438,-9.51563 32.324883,27.274118 0 0 0 -32.32422,27.27344 32.324883,27.274118 0 0 0 32.32422,27.27539 32.324883,27.274118 0 0 0 2.17578,-0.0644 30.304577,26.769043 0 0 0 30.15039,24.30664 30.304577,26.769043 0 0 0 29.28516,-20.01368 36.36549,31.31473 0 0 0 28.29297,-30.49414 36.36549,31.31473 0 0 0 -36.36524,-31.31445 z m -313.148434,6.06055 a 13.131983,11.111678 0 0 0 -13.13086,11.11328 13.131983,11.111678 0 0 0 13.13086,11.11133 13.131983,11.111678 0 0 0 13.132812,-11.11133 13.131983,11.111678 0 0 0 -13.132812,-11.11328 z m 87.378904,4.04101 a 25.75889,20.708128 0 0 0 -25.75781,20.70899 25.75889,20.708128 0 0 0 2.2832,8.46484 30.809652,22.223356 0 0 0 -13.39648,18.30469 30.809652,22.223356 0 0 0 30.81055,22.22266 30.809652,22.223356 0 0 0 30.80859,-22.22266 30.809652,22.223356 0 0 0 -5.7168,-12.84961 25.75889,20.708128 0 0 0 6.72852,-13.91992 25.75889,20.708128 0 0 0 -25.75977,-20.70899 z m 414.66797,36.36524 a 33.335033,19.192898 0 0 0 -32.07812,14.04687 32.324883,23.738585 0 0 0 -23.48047,22.82422 32.324883,23.738585 0 0 0 32.32422,23.73828 A 32.324883,23.738585 0 0 0 589.875,590 33.335033,19.192898 0 0 0 614.17188,571.5293 33.335033,19.192898 0 0 0 580.83789,552.33594 Z M 305.57031,729.11328 a 35.860416,20.203051 0 0 0 -35.85937,20.20313 35.860416,20.203051 0 0 0 0.49804,3.32421 28.789347,28.789347 0 0 0 -7.56836,19.4043 28.789347,28.789347 0 0 0 28.78907,28.78906 28.789347,28.789347 0 0 0 28.78906,-28.78906 28.789347,28.789347 0 0 0 -0.33984,-4.22851 35.860416,20.203051 0 0 0 21.55273,-18.5 35.860416,20.203051 0 0 0 -35.86133,-20.20313 z m 164.65625,4.04102 a 29.7995,20.203051 0 0 0 -29.80078,20.20312 29.7995,20.203051 0 0 0 25.8418,20.00196 42.931484,23.738585 0 0 0 -0.58789,3.73632 42.931484,23.738585 0 0 0 42.93164,23.73828 42.931484,23.738585 0 0 0 42.93164,-23.73828 42.931484,23.738585 0 0 0 -42.93164,-23.73828 42.931484,23.738585 0 0 0 -8.62305,0.50977 29.7995,20.203051 0 0 0 0.0371,-0.50977 29.7995,20.203051 0 0 0 -29.79883,-20.20312 z"
       id="path5009"
       inkscape:connector-curvature="0" />
    <path
       id="path5046"
       d="m 339.91602,351.81604 a 31.845846,29.944601 0 0 0 -31.8456,29.94509 31.845846,29.944601 0 0 0 31.8456,29.94507 31.845846,29.944601 0 0 0 9.98782,-1.54946 27.092734,35.648336 0 0 0 -0.006,0.12315 27.092734,35.648336 0 0 0 27.09247,35.64847 27.092734,35.648336 0 0 0 27.09246,-35.64847 27.092734,35.648336 0 0 0 -2.19092,-13.94324 25.19149,18.537134 0 0 0 22.15369,-18.3784 25.19149,18.537134 0 0 0 -25.19195,-18.53647 25.19149,18.537134 0 0 0 -24.81331,15.46514 27.092734,35.648336 0 0 0 -3.01068,0.66353 31.845846,29.944601 0 0 0 -31.11406,-23.73441 z m 180.61888,70.34668 a 39.450822,28.043356 0 0 0 -35.63192,16.08638 22.339623,22.339623 0 0 0 -16.17644,21.4626 22.339623,22.339623 0 0 0 22.33934,22.34117 22.339623,22.339623 0 0 0 9.46398,-2.1321 28.043356,16.63589 0 0 0 20.00504,4.98288 28.043356,16.63589 0 0 0 27.87914,-14.88064 39.450822,28.043356 0 0 0 11.5722,-19.81756 39.450822,28.043356 0 0 0 -39.45134,-28.04273 z m -131.66129,87.45683 a 34.2224,29.469291 0 0 0 -27.34243,11.80747 30.419914,25.6668 0 0 0 -23.04147,-8.95486 30.419914,25.6668 0 0 0 -30.41929,25.66616 30.419914,25.6668 0 0 0 30.41929,25.668 30.419914,25.6668 0 0 0 2.04756,-0.0607 28.518668,25.19149 0 0 0 28.37356,22.8742 28.518668,25.19149 0 0 0 27.55933,-18.83423 34.2224,29.469291 0 0 0 26.62561,-28.69706 34.2224,29.469291 0 0 0 -34.22216,-29.46903 z M 94.179629,515.32294 A 12.358089,10.456845 0 0 0 81.822597,525.78129 12.358089,10.456845 0 0 0 94.179629,536.23781 12.358089,10.456845 0 0 0 106.5385,525.78129 12.358089,10.456845 0 0 0 94.179629,515.32294 Z m 82.229491,3.80287 a 24.240868,19.487757 0 0 0 -24.23985,19.48856 24.240868,19.487757 0 0 0 2.14865,7.96599 28.993978,20.91369 0 0 0 -12.607,17.22596 28.993978,20.91369 0 0 0 28.99482,20.91304 28.993978,20.91369 0 0 0 28.99298,-20.91304 28.993978,20.91369 0 0 0 -5.3799,-12.09235 24.240868,19.487757 0 0 0 6.332,-13.0996 24.240868,19.487757 0 0 0 -24.2417,-19.48856 z m 390.23077,34.22216 a 31.370534,18.061823 0 0 0 -30.1877,13.21906 30.419914,22.339623 0 0 0 -22.09672,21.47914 30.419914,22.339623 0 0 0 30.41929,22.33934 30.419914,22.339623 0 0 0 30.36966,-21.5931 31.370534,18.061823 0 0 0 22.86502,-17.38218 31.370534,18.061823 0 0 0 -31.36955,-18.06226 z m -259.04552,166.3595 a 33.747091,19.012445 0 0 0 -33.74611,19.01252 33.747091,19.012445 0 0 0 0.46869,3.12831 27.092734,27.092734 0 0 0 -7.12234,18.26076 27.092734,27.092734 0 0 0 27.09248,27.09247 27.092734,27.092734 0 0 0 27.09246,-27.09247 27.092734,27.092734 0 0 0 -0.31981,-3.97931 33.747091,19.012445 0 0 0 20.28258,-17.40976 33.747091,19.012445 0 0 0 -33.74795,-19.01252 z m 154.95273,3.80288 a 28.043356,19.012445 0 0 0 -28.04456,19.01251 28.043356,19.012445 0 0 0 24.31889,18.8232 40.401447,22.339623 0 0 0 -0.55324,3.51613 40.401447,22.339623 0 0 0 40.40159,22.33934 40.401447,22.339623 0 0 0 40.40159,-22.33934 40.401447,22.339623 0 0 0 -40.40159,-22.33933 40.401447,22.339623 0 0 0 -8.11488,0.47972 28.043356,19.012445 0 0 0 0.0349,-0.47972 28.043356,19.012445 0 0 0 -28.04273,-19.01251 z"
       style="opacity:1;fill:#f9f9f9;fill-opacity:1;stroke:none;stroke-width:1.54999995;stroke-miterlimit:4;stroke-dasharray:none;stroke-dashoffset:0;stroke-opacity:1"
       inkscape:connector-curvature="0" />
  </g>
  <g
     inkscape:groupmode="layer"
     id="layer10"
     inkscape:label="Layer 9"
     style="display:inline"
     sodipodi:insensitive="true">
    <path
       style="opacity:1;fill:#ececec;fill-opacity:1;stroke:none;stroke-width:1.54999995;stroke-miterlimit:4;stroke-dasharray:none;stroke-dashoffset:0;stroke-opacity:1"
       d="m 307.32227,335.93359 a 12.678572,10 0 0 0 -12.67969,10 12.678572,10 0 0 0 12.67969,10 12.678572,10 0 0 0 12.67773,-10 12.678572,10 0 0 0 -12.67773,-10 z m 32.08984,26.49414 a 19.192898,20.203051 0 0 0 -19.19336,20.20313 19.192898,20.203051 0 0 0 11.61328,18.55664 15.357142,16.607143 0 0 0 -0.0469,0.99609 15.357142,16.607143 0 0 0 15.35742,16.60743 15.357142,16.607143 0 0 0 13.07422,-7.93555 20.178572,17.857143 0 0 0 1.74804,0.0781 20.178572,17.857143 0 0 0 20.17774,-17.85742 20.178572,17.857143 0 0 0 -20.17774,-17.85742 20.178572,17.857143 0 0 0 -4.54296,0.48047 19.192898,20.203051 0 0 0 -18.00977,-13.27149 z m 212.38281,80.30665 a 29.546963,22.98097 0 0 0 -29.54687,22.98242 29.546963,22.98097 0 0 0 29.54687,22.98047 29.546963,22.98097 0 0 0 29.54883,-22.98047 29.546963,22.98097 0 0 0 -29.54883,-22.98242 z m -170.1875,32.48437 a 23.75,21.071428 0 0 0 -21.42187,12.0332 25.714285,22.857143 0 0 0 -7.32813,-0.96093 25.714285,22.857143 0 0 0 -25.71484,22.85742 25.714285,22.857143 0 0 0 25.71484,22.85742 25.714285,22.857143 0 0 0 13.41992,-3.38477 17.142857,16.785715 0 0 0 13.00782,5.88477 17.142857,16.785715 0 0 0 17.14257,-16.78711 17.142857,16.785715 0 0 0 -0.64257,-4.55078 23.75,21.071428 0 0 0 9.57226,-16.87695 23.75,21.071428 0 0 0 -23.75,-21.07227 z m -206.78515,25 a 24.821428,18.392857 0 0 0 -24.20118,14.37109 18.571428,13.928572 0 0 0 -16.69336,13.84375 18.571428,13.928572 0 0 0 18.57227,13.92774 18.571428,13.928572 0 0 0 15.36328,-6.10547 24.821428,18.392857 0 0 0 6.95899,0.75 24.821428,18.392857 0 0 0 24.82031,-18.39453 24.821428,18.392857 0 0 0 -24.82031,-18.39258 z m 408.79296,61.20898 a 30.052038,23.486046 0 0 0 -30.05078,23.48633 30.052038,23.486046 0 0 0 1.08594,6.25586 23.233509,14.89975 0 0 0 -6.64258,10.41211 23.233509,14.89975 0 0 0 23.23438,14.89844 23.233509,14.89975 0 0 0 21.46289,-9.20899 30.052038,23.486046 0 0 0 20.96289,-22.35742 30.052038,23.486046 0 0 0 -30.05274,-23.48633 z M 523.25977,761.4375 a 23.233509,25.506351 0 0 0 -23.23438,25.50781 23.233509,25.506351 0 0 0 23.23438,25.50586 23.233509,25.506351 0 0 0 5.96093,-0.86719 29.546963,22.475895 0 0 0 28.63672,17.0293 29.546963,22.475895 0 0 0 29.54688,-22.47656 29.546963,22.475895 0 0 0 -29.54688,-22.47461 29.546963,22.475895 0 0 0 -11.41406,1.76758 23.233509,25.506351 0 0 0 -23.18359,-23.99219 z M 322.23828,767.5 a 27.274118,24.496199 0 0 0 -27.27344,24.49609 27.274118,24.496199 0 0 0 9.19336,18.3086 17.67767,15.657365 0 0 0 -0.10156,1.64062 17.67767,15.657365 0 0 0 17.67774,15.65821 17.67767,15.657365 0 0 0 17.67773,-15.65821 17.67767,15.657365 0 0 0 -0.0371,-0.90625 27.274118,24.496199 0 0 0 10.13867,-19.04297 A 27.274118,24.496199 0 0 0 322.23828,767.5 Z"
       id="path5049"
       inkscape:connector-curvature="0" />
    <path
       id="path5082"
       d="m 309.28189,343.19538 a 12.304824,9.7052126 0 0 0 -12.30591,9.70521 12.304824,9.7052126 0 0 0 12.30591,9.70521 12.304824,9.7052126 0 0 0 12.304,-9.70521 12.304824,9.7052126 0 0 0 -12.304,-9.70521 z m 31.14387,25.71312 a 18.627116,19.607491 0 0 0 -18.62757,19.60757 18.627116,19.607491 0 0 0 11.27094,18.00961 14.904433,16.117585 0 0 0 -0.0455,0.96673 14.904433,16.117585 0 0 0 14.9047,16.11786 14.904433,16.117585 0 0 0 12.68881,-7.70162 19.583733,17.330737 0 0 0 1.69651,0.0758 19.583733,17.330737 0 0 0 19.58293,-17.331 19.583733,17.330737 0 0 0 -19.58293,-17.33101 19.583733,17.330737 0 0 0 -4.40904,0.46631 18.627116,19.607491 0 0 0 -17.47886,-12.88027 z m 206.12203,77.93931 a 28.675956,22.30352 0 0 0 -28.67586,22.30493 28.675956,22.30352 0 0 0 28.67586,22.30304 28.675956,22.30352 0 0 0 28.67777,-22.30304 28.675956,22.30352 0 0 0 -28.67777,-22.30493 z M 381.3772,478.37459 a 23.04988,20.450269 0 0 0 -20.79038,11.67847 24.95626,22.183343 0 0 0 -7.1121,-0.9326 24.95626,22.183343 0 0 0 -24.9568,22.18361 24.95626,22.183343 0 0 0 24.9568,22.18361 24.95626,22.183343 0 0 0 13.02432,-3.28499 16.637507,16.290893 0 0 0 12.62436,5.7113 16.637507,16.290893 0 0 0 16.63723,-16.29225 16.637507,16.290893 0 0 0 -0.62363,-4.41663 23.04988,20.450269 0 0 0 9.29008,-16.37944 23.04988,20.450269 0 0 0 -23.04988,-20.45108 z m -200.68938,24.26303 a 24.089724,17.850659 0 0 0 -23.48776,13.94745 18.023966,13.517975 0 0 0 -16.20126,13.43565 18.023966,13.517975 0 0 0 18.02478,13.51717 18.023966,13.517975 0 0 0 14.91039,-5.92549 24.089724,17.850659 0 0 0 6.75385,0.72789 24.089724,17.850659 0 0 0 24.08864,-17.85228 24.089724,17.850659 0 0 0 -24.08864,-17.85039 z m 396.74226,59.40462 a 29.166142,22.793707 0 0 0 -29.16492,22.79398 29.166142,22.793707 0 0 0 1.05393,6.07144 22.548615,14.460524 0 0 0 -6.44677,10.10518 22.548615,14.460524 0 0 0 22.54946,14.45925 22.548615,14.460524 0 0 0 20.83019,-8.93752 29.166142,22.793707 0 0 0 20.34493,-21.69835 29.166142,22.793707 0 0 0 -29.16682,-22.79398 z m -58.57626,194.11373 a 22.548615,24.754456 0 0 0 -22.54946,24.75587 22.548615,24.754456 0 0 0 22.54946,24.75398 22.548615,24.754456 0 0 0 5.78521,-0.84162 28.675956,21.813334 0 0 0 27.79255,16.52729 28.675956,21.813334 0 0 0 28.67587,-21.81398 28.675956,21.813334 0 0 0 -28.67587,-21.81208 28.675956,21.813334 0 0 0 -11.07759,1.71547 22.548615,24.754456 0 0 0 -22.50017,-23.28493 z m -195.09563,5.88379 a 26.470111,23.774082 0 0 0 -26.46945,23.77397 26.470111,23.774082 0 0 0 8.92235,17.76889 17.156555,15.195806 0 0 0 -0.0986,1.59225 17.156555,15.195806 0 0 0 17.15663,15.19663 17.156555,15.195806 0 0 0 17.15661,-15.19663 17.156555,15.195806 0 0 0 -0.036,-0.87953 26.470111,23.774082 0 0 0 9.8398,-18.48161 26.470111,23.774082 0 0 0 -26.47135,-23.77397 z"
       style="opacity:1;fill:#f9f9f9;fill-opacity:1;stroke:none;stroke-width:1.54999995;stroke-miterlimit:4;stroke-dasharray:none;stroke-dashoffset:0;stroke-opacity:1"
       inkscape:connector-curvature="0" />
  </g>
  <g
     inkscape:groupmode="layer"
     id="layer2"
     inkscape:label="Layer 10">
    <ellipse
       style="opacity:1;fill:#f9f9f9;fill-opacity:1;stroke:none;stroke-width:1.54999995;stroke-miterlimit:4;stroke-dasharray:none;stroke-dashoffset:0;stroke-opacity:1"
       id="path4187"
       cx="395"
       cy="512.36218"
       rx="5.7142859"
       ry="5" />
  </g>
</svg>
